<svg width="20" height="21" viewBox="0 0 20 21" fill="none" xmlns="http://www.w3.org/2000/svg">
<path d="M5 8.83268V7.16602C5 4.40768 5.83333 2.16602 10 2.16602C14.1667 2.16602 15 4.40768 15 7.16602V8.83268" stroke="#8088A4" stroke-width="1.2" stroke-linecap="round" stroke-linejoin="round"/>
<path d="M9.99996 15.9167C11.1506 15.9167 12.0833 14.9839 12.0833 13.8333C12.0833 12.6827 11.1506 11.75 9.99996 11.75C8.84937 11.75 7.91663 12.6827 7.91663 13.8333C7.91663 14.9839 8.84937 15.9167 9.99996 15.9167Z" stroke="#8088A4" stroke-width="1.2" stroke-linecap="round" stroke-linejoin="round"/>
<path d="M14.1666 18.834H5.83329C2.49996 18.834 1.66663 18.0007 1.66663 14.6673V13.0007C1.66663 9.66732 2.49996 8.83398 5.83329 8.83398H14.1666C17.5 8.83398 18.3333 9.66732 18.3333 13.0007V14.6673C18.3333 18.0007 17.5 18.834 14.1666 18.834Z" stroke="#8088A4" stroke-width="1.2" stroke-linecap="round" stroke-linejoin="round"/>
</svg>
