<svg width="24" height="23" viewBox="0 0 24 23" fill="none" xmlns="http://www.w3.org/2000/svg">
<path d="M19.2642 4.4939C18.8989 4.4939 18.5417 4.60224 18.238 4.80521C17.9342 5.00819 17.6974 5.29669 17.5576 5.63423C17.4178 5.97177 17.3812 6.3432 17.4525 6.70153C17.5238 7.05986 17.6997 7.38901 17.958 7.64735C18.2164 7.90569 18.5455 8.08163 18.9039 8.1529C19.2622 8.22418 19.6336 8.1876 19.9712 8.04778C20.3087 7.90797 20.5972 7.6712 20.8002 7.36742C21.0032 7.06364 21.1115 6.7065 21.1115 6.34115C21.1109 5.85141 20.9161 5.3819 20.5698 5.0356C20.2235 4.6893 19.754 4.49449 19.2642 4.4939ZM19.283 7.06152C19.2762 7.06152 19.2699 7.05965 19.2631 7.05965C19.2564 7.05965 19.2511 7.05965 19.2447 7.06152C19.0548 7.05659 18.8744 6.97703 18.7427 6.84007C18.6109 6.70311 18.5385 6.51978 18.5409 6.32976C18.5434 6.13975 18.6206 5.95836 18.7558 5.82486C18.8911 5.69137 19.0735 5.61651 19.2635 5.61651C19.4535 5.61651 19.6359 5.69137 19.7711 5.82486C19.9064 5.95836 19.9836 6.13975 19.9861 6.32976C19.9885 6.51978 19.916 6.70311 19.7843 6.84007C19.6526 6.97703 19.4722 7.05659 19.2822 7.06152H19.283Z" fill="#00D2CB"/>
<path d="M19.2643 2.49284C18.2931 2.49265 17.3577 2.85996 16.6462 3.521C15.9346 4.18204 15.4995 5.08784 15.4283 6.05646C15.3571 7.02508 15.655 7.98477 16.2622 8.74278C16.8694 9.50079 17.741 10.001 18.7018 10.1428V16.1578C18.7018 17.6523 18.1081 19.0855 17.0514 20.1422C15.9947 21.1989 14.5615 21.7926 13.067 21.7926C11.5726 21.7926 10.1394 21.1989 9.08268 20.1422C8.02596 19.0855 7.4323 17.6523 7.4323 16.1578V15.0433C8.27256 14.9092 9.03775 14.4807 9.59111 13.8343C10.1445 13.1879 10.4499 12.3658 10.4529 11.515C11.3909 10.8838 12.1596 10.0319 12.6914 9.03421C13.2232 8.03649 13.5018 6.92343 13.5028 5.79284V1.93746C13.5025 1.44485 13.3067 0.972495 12.9583 0.624163C12.61 0.275832 12.1377 0.08001 11.645 0.0797119H10.0667C9.91749 0.0797119 9.77442 0.138975 9.66893 0.244464C9.56344 0.349954 9.50417 0.493028 9.50417 0.642212C9.50417 0.791396 9.56344 0.93447 9.66893 1.03996C9.77442 1.14545 9.91749 1.20471 10.0667 1.20471H11.645C11.8392 1.20491 12.0254 1.28221 12.1626 1.41962C12.2998 1.55702 12.3768 1.74329 12.3767 1.93746V5.79284C12.3767 8.70546 10.1893 11.1928 7.39742 11.4531C6.63237 11.53 5.8597 11.4442 5.13016 11.2013C4.40061 10.9584 3.7307 10.564 3.16442 10.0438C2.59755 9.5268 2.14457 8.89736 1.83434 8.19562C1.52411 7.49388 1.36344 6.73522 1.36255 5.96796V1.93746C1.36245 1.74329 1.43946 1.55702 1.57666 1.41962C1.71385 1.28221 1.9 1.20491 2.09417 1.20471H3.67255C3.82173 1.20471 3.96481 1.14545 4.0703 1.03996C4.17579 0.93447 4.23505 0.791396 4.23505 0.642212C4.23505 0.493028 4.17579 0.349954 4.0703 0.244464C3.96481 0.138975 3.82173 0.0797119 3.67255 0.0797119H2.09417C1.60175 0.0803079 1.12969 0.276262 0.781602 0.624561C0.433514 0.972859 0.237846 1.44504 0.237549 1.93746V5.96796C0.238557 6.89169 0.431937 7.80508 0.805372 8.64996C1.17881 9.49483 1.72411 10.2527 2.40655 10.8752C2.68285 11.1254 2.9795 11.3522 3.29342 11.5532C3.30451 12.3965 3.61274 13.2088 4.16383 13.8471C4.71493 14.4855 5.47357 14.9089 6.30617 15.043V16.1578C6.30617 17.9506 7.01836 19.67 8.28606 20.9377C9.55376 22.2054 11.2731 22.9176 13.0659 22.9176C14.8587 22.9176 16.5781 22.2054 17.8458 20.9377C19.1135 19.67 19.8257 17.9506 19.8257 16.1578V10.1436C20.7865 10.0017 21.658 9.50154 22.2653 8.74353C22.8725 7.98553 23.1704 7.02583 23.0992 6.05721C23.028 5.08859 22.5929 4.18279 21.8813 3.52175C21.1697 2.86071 20.2344 2.4934 19.2632 2.49359L19.2643 2.49284ZM4.50955 12.175C5.25951 12.4604 6.05536 12.6062 6.8578 12.6051C7.07155 12.6051 7.2863 12.5951 7.50205 12.5751C8.09767 12.5175 8.68205 12.3753 9.23755 12.1528C9.09645 12.6709 8.78972 13.1286 8.36416 13.456C7.93861 13.7835 7.41761 13.9627 6.88067 13.9663H6.85442C6.32228 13.962 5.80594 13.785 5.38306 13.4619C4.96018 13.1389 4.65364 12.6872 4.50955 12.175ZM19.271 9.06246H19.2564C18.5346 9.06052 17.8431 8.77218 17.3337 8.26075C16.8243 7.74932 16.5388 7.05663 16.5397 6.33482C16.5407 5.613 16.8281 4.92108 17.3389 4.41102C17.8496 3.90096 18.5419 3.61447 19.2637 3.61447C19.9856 3.61447 20.6779 3.90096 21.1886 4.41102C21.6993 4.92108 21.9868 5.613 21.9877 6.33482C21.9887 7.05663 21.7031 7.74932 21.1938 8.26075C20.6844 8.77218 19.9929 9.06052 19.271 9.06246Z" fill="#2B2979"/>
</svg>
