<svg width="20" height="21" viewBox="0 0 20 21" fill="none" xmlns="http://www.w3.org/2000/svg">
<path d="M10 10.4993C12.3012 10.4993 14.1667 8.63387 14.1667 6.33268C14.1667 4.0315 12.3012 2.16602 10 2.16602C7.69885 2.16602 5.83337 4.0315 5.83337 6.33268C5.83337 8.63387 7.69885 10.4993 10 10.4993Z" stroke="#8088A4" stroke-width="1.2" stroke-linecap="round" stroke-linejoin="round"/>
<path d="M16.0083 13.6162L13.0583 16.5662C12.9416 16.6829 12.8333 16.8995 12.8083 17.0579L12.6499 18.1828C12.5916 18.5912 12.875 18.8745 13.2833 18.8162L14.4083 18.6579C14.5666 18.6329 14.7916 18.5245 14.9 18.4079L17.8499 15.4579C18.3583 14.9495 18.5999 14.3579 17.8499 13.6079C17.1083 12.8662 16.5166 13.1079 16.0083 13.6162Z" stroke="#8088A4" stroke-width="1.2" stroke-miterlimit="10" stroke-linecap="round" stroke-linejoin="round"/>
<path d="M15.5833 14.041C15.8333 14.941 16.5332 15.641 17.4332 15.891" stroke="#8088A4" stroke-width="1.2" stroke-miterlimit="10" stroke-linecap="round" stroke-linejoin="round"/>
<path d="M2.84167 18.8333C2.84167 15.6083 6.05003 13 10 13C10.8667 13 11.7 13.125 12.475 13.3583" stroke="#8088A4" stroke-width="1.2" stroke-linecap="round" stroke-linejoin="round"/>
</svg>
