<svg width="50" height="51" viewBox="0 0 50 51" fill="none" xmlns="http://www.w3.org/2000/svg">
<rect x="0.5" y="0.808594" width="49" height="49" rx="24.5" fill="white" stroke="#E9EAEF"/>
<path d="M37.1492 17.0117H12.8508C11.2763 17.0117 10 18.2881 10 19.8625V35.4767C10 37.0512 11.2763 38.3275 12.8508 38.3275H37.1492C38.7237 38.3275 40 37.0512 40 35.4767V19.8625C40 18.2881 38.7237 17.0117 37.1492 17.0117Z" fill="#ECEDF2"/>
<path d="M18.0254 17.0141C18.6996 14.3184 21.566 12.293 25.0012 12.293C28.4365 12.293 31.3029 14.3184 31.9771 17.0141" stroke="#ECEDF2" stroke-linecap="round" stroke-linejoin="round"/>
<g style="mix-blend-mode:multiply" opacity="0.5">
<path d="M12.1776 35.4767V19.8616C12.181 19.1071 12.4824 18.3846 13.0163 17.8515C13.5501 17.3184 14.273 17.0179 15.0275 17.0156H12.8508C12.0955 17.0177 11.3718 17.3186 10.8376 17.8525C10.3034 18.3865 10.0023 19.1102 10 19.8655V35.4767C10.0023 36.232 10.3034 36.9557 10.8376 37.4896C11.3718 38.0236 12.0955 38.3245 12.8508 38.3266H15.0275C14.2724 38.3242 13.5488 38.0233 13.0149 37.4893C12.4809 36.9554 12.1799 36.2318 12.1776 35.4767Z" fill="#ECEDF2"/>
</g>
<path d="M23.7923 24.5736V27.002C23.7923 27.1024 23.7525 27.1988 23.6815 27.27C23.6106 27.3411 23.5143 27.3812 23.4138 27.3815H20.6527C20.5857 27.3815 20.5214 27.4081 20.4741 27.4555C20.4267 27.5029 20.4 27.5672 20.4 27.6342V30.3943C20.3995 30.4939 20.3598 30.5893 20.2895 30.6599C20.2192 30.7305 20.124 30.7707 20.0244 30.7718H17.5951C17.4944 30.7718 17.3979 30.7319 17.3267 30.6607C17.2555 30.5895 17.2155 30.493 17.2155 30.3923V27.7581C17.2156 27.7084 17.2058 27.6591 17.1868 27.6132C17.1677 27.5673 17.1399 27.5255 17.1047 27.4904C17.0696 27.4552 17.0278 27.4273 16.9819 27.4083C16.9359 27.3893 16.8867 27.3795 16.837 27.3795H14.2028C14.1023 27.3793 14.006 27.3392 13.935 27.268C13.8641 27.1969 13.8242 27.1005 13.8242 27V24.5736C13.8241 24.4731 13.864 24.3766 13.9349 24.3055C14.0059 24.2343 14.1023 24.1942 14.2028 24.1941H16.837C16.9375 24.1938 17.0338 24.1537 17.1047 24.0826C17.1757 24.0114 17.2156 23.915 17.2155 23.8145V21.1803C17.2156 21.0797 17.2556 20.9832 17.3268 20.912C17.398 20.8409 17.4944 20.8009 17.5951 20.8008H20.0244C20.1251 20.8009 20.2215 20.8409 20.2927 20.912C20.3639 20.9832 20.4039 21.0797 20.4039 21.1803V23.8145C20.4039 23.915 20.4437 24.0115 20.5147 24.0826C20.5857 24.1538 20.682 24.1939 20.7825 24.1941H23.4167C23.5167 24.1951 23.6122 24.2355 23.6826 24.3066C23.7529 24.3777 23.7924 24.4736 23.7923 24.5736Z" fill="#00D2CB"/>
<g style="mix-blend-mode:multiply" opacity="0.5">
<path d="M17.3267 30.6606C17.3979 30.7317 17.4944 30.7717 17.5951 30.7718H18.8097V20.8008H17.5951C17.4944 20.8009 17.398 20.8409 17.3268 20.912C17.2556 20.9832 17.2156 21.0797 17.2155 21.1803V23.8145C17.2155 23.915 17.1757 24.0114 17.1047 24.0826C17.0338 24.1537 16.9375 24.1938 16.837 24.1941H14.2028C14.1023 24.1942 14.0059 24.2343 13.9349 24.3055C13.864 24.3766 13.8241 24.4731 13.8242 24.5736V27C13.8241 27.1005 13.864 27.1969 13.9349 27.2681C14.0059 27.3393 14.1023 27.3794 14.2028 27.3795H16.837C16.9374 27.3795 17.0337 27.4194 17.1047 27.4904C17.1399 27.5255 17.1677 27.5673 17.1868 27.6132C17.2058 27.6591 17.2156 27.7084 17.2155 27.7581V30.3923C17.2157 30.4929 17.2556 30.5894 17.3267 30.6606Z" fill="#00D2CB"/>
</g>
<path d="M32.8164 27.9375H36.0975M32.8164 31.2127H36.0975M32.8164 34.4889H36.0975" stroke="#2B2979" stroke-linecap="round" stroke-linejoin="round"/>
</svg>
