<svg width="50" height="51" viewBox="0 0 50 51" fill="none" xmlns="http://www.w3.org/2000/svg">
<rect x="0.5" y="0.600586" width="49" height="49" rx="24.5" fill="white" stroke="#E9EAEF"/>
<g clip-path="url(#clip0_368_3552)">
<path d="M15.7209 11.3769C15.7209 10.4581 16.4762 9.71338 17.408 9.71338H32.5919C33.5237 9.71338 34.279 10.4581 34.279 11.3769V38.8242C34.279 39.7429 33.5237 40.4877 32.5919 40.4877H17.408C16.4762 40.4877 15.7209 39.7429 15.7209 38.8242V11.3769Z" fill="#ECEDF2"/>
<path d="M27.5306 12.6245H22.4693M28.7959 37.5766H21.204" stroke="#2B2979" stroke-miterlimit="10" stroke-linecap="round" stroke-linejoin="round"/>
<g style="mix-blend-mode:multiply" opacity="0.5">
<path d="M17.408 9.71338C16.4762 9.71338 15.7209 10.4581 15.7209 11.3769V38.8242C15.7209 39.7429 16.4762 40.4877 17.408 40.4877H19.0951C18.1633 40.4877 17.408 39.7429 17.408 38.8242V11.3769C17.408 10.4581 18.1633 9.71338 19.0951 9.71338H17.408Z" fill="#ECEDF2"/>
</g>
<path d="M15.7209 11.3769C15.7209 10.4581 16.4762 9.71338 17.408 9.71338H32.5919C33.5237 9.71338 34.279 10.4581 34.279 11.3769V38.8242C34.279 39.7429 33.5237 40.4877 32.5919 40.4877H17.408C16.4762 40.4877 15.7209 39.7429 15.7209 38.8242V11.3769Z" stroke="#2B2979" stroke-miterlimit="10" stroke-linecap="round" stroke-linejoin="round"/>
<path d="M19.0952 31.5465C19.0952 30.5129 19.9449 29.675 20.9931 29.675H29.0069C30.0551 29.675 30.9049 30.5129 30.9049 31.5465C30.9049 32.58 30.0551 33.4179 29.0069 33.4179H20.9931C19.9449 33.4179 19.0952 32.58 19.0952 31.5465Z" fill="white"/>
<g style="mix-blend-mode:multiply" opacity="0.5">
<path d="M20.9931 29.675C19.9449 29.675 19.0952 30.5129 19.0952 31.5465C19.0952 32.58 19.9449 33.4179 20.9931 33.4179H23.102C22.0538 33.4179 21.204 32.58 21.204 31.5465C21.204 30.5129 22.0538 29.675 23.102 29.675H20.9931Z" fill="white"/>
</g>
<path d="M29.3866 19.9025C29.4537 19.9025 29.5181 19.9288 29.5655 19.9756C29.613 20.0223 29.6397 20.0858 29.6397 20.152V22.5751C29.6397 22.6413 29.613 22.7047 29.5655 22.7515C29.5181 22.7983 29.4537 22.8246 29.3866 22.8246H26.4761V25.6828C26.4761 25.749 26.4494 25.8124 26.402 25.8592C26.3545 25.906 26.2901 25.9323 26.223 25.9323H23.7655C23.6984 25.9323 23.634 25.906 23.5866 25.8592C23.5391 25.8124 23.5124 25.749 23.5124 25.6828V22.8246H20.6137C20.5465 22.8246 20.4822 22.7983 20.4347 22.7515C20.3873 22.7047 20.3606 22.6413 20.3606 22.5751V20.152C20.3606 20.0858 20.3873 20.0223 20.4347 19.9756C20.4822 19.9288 20.5465 19.9025 20.6137 19.9025H23.5124V17.0327C23.5124 16.9665 23.5391 16.9031 23.5866 16.8563C23.634 16.8095 23.6984 16.7832 23.7655 16.7832H26.223C26.2901 16.7832 26.3545 16.8095 26.402 16.8563C26.4494 16.9031 26.4761 16.9665 26.4761 17.0327V19.9025H29.3866Z" fill="#00D2CB"/>
<g style="mix-blend-mode:multiply" opacity="0.5">
<path d="M23.5124 22.8246V25.6828C23.5124 25.749 23.5391 25.8124 23.5866 25.8592C23.634 25.906 23.6984 25.9323 23.7655 25.9323H24.9942V16.7832H23.7655C23.6984 16.7832 23.634 16.8095 23.5866 16.8563C23.5391 16.9031 23.5124 16.9665 23.5124 17.0327V19.9025H20.6137C20.5465 19.9025 20.4822 19.9288 20.4347 19.9756C20.3873 20.0223 20.3606 20.0858 20.3606 20.152V22.5751C20.3606 22.6413 20.3873 22.7047 20.4347 22.7515C20.4822 22.7983 20.5465 22.8246 20.6137 22.8246H23.5124Z" fill="#00D2CB"/>
</g>
</g>
<defs>
<clipPath id="clip0_368_3552">
<rect width="21" height="32" fill="white" transform="translate(14.5 9.10059)"/>
</clipPath>
</defs>
</svg>
