<svg width="50" height="51" viewBox="0 0 50 51" fill="none" xmlns="http://www.w3.org/2000/svg">
<rect x="0.5" y="0.600586" width="49" height="49" rx="24.5" fill="white" stroke="#E9EAEF"/>
<path d="M23.404 25.4059C24.0104 24.8668 24.2205 24.2799 24.2205 23.5563C24.2205 22.1204 22.9246 20.9563 21.1655 20.9563C19.4065 20.9563 17.9804 22.1204 17.9804 23.5563C17.9804 23.6281 18.0386 23.6864 18.1105 23.6864H20.0605C20.1323 23.6864 20.1905 23.6281 20.1905 23.5563C20.1905 23.0538 20.627 22.6463 21.1655 22.6463C21.704 22.6463 22.1405 23.0538 22.1405 23.5563C22.1405 23.9383 21.9195 24.1256 21.6385 24.3754L18.0518 27.5635C18.0253 27.587 18.004 27.6159 17.9895 27.6483C17.975 27.6806 17.9675 27.7157 17.9675 27.7512V29.0772C17.9675 29.1438 17.9939 29.2077 18.041 29.2548C18.0881 29.3019 18.152 29.3284 18.2186 29.3284H24.2164C24.283 29.3284 24.3469 29.3019 24.394 29.2548C24.4411 29.2077 24.4676 29.1438 24.4676 29.0772V27.8896C24.4676 27.823 24.4411 27.7591 24.394 27.712C24.3469 27.6649 24.283 27.6384 24.2164 27.6384H20.9035C20.9035 27.6384 22.9985 25.7663 23.404 25.4059Z" fill="#00D2CB"/>
<g style="mix-blend-mode:multiply" opacity="0.5">
<path d="M19.0558 29.3284H18.2186C18.152 29.3284 18.0881 29.3019 18.041 29.2548C17.9939 29.2077 17.9675 29.1438 17.9675 29.0772V27.7512C17.9675 27.6794 17.9981 27.6111 18.0518 27.5635L21.6385 24.3754L21.6578 24.3581C21.9296 24.1168 22.1405 23.9295 22.1405 23.5563C22.1405 23.1936 21.9132 22.8804 21.5841 22.7342C21.716 22.6759 21.8586 22.646 22.0027 22.6463C22.5412 22.6463 22.9777 23.0538 22.9777 23.5563C22.9777 23.9295 22.7668 24.1168 22.495 24.3581L22.4757 24.3754L18.889 27.5635C18.8625 27.587 18.8413 27.6159 18.8267 27.6483C18.8122 27.6806 18.8047 27.7157 18.8047 27.7512V29.0772C18.8047 29.1438 18.8311 29.2077 18.8782 29.2548C18.9253 29.3019 18.9892 29.3284 19.0558 29.3284ZM18.9477 23.6864C18.9132 23.6864 18.8801 23.6727 18.8557 23.6483C18.8314 23.6239 18.8177 23.5908 18.8177 23.5563C18.8177 22.2366 20.0222 21.1464 21.5829 20.9787C21.4443 20.9637 21.3049 20.9562 21.1655 20.9563C19.4065 20.9563 17.9804 22.1204 17.9804 23.5563C17.9804 23.6281 18.0386 23.6864 18.1105 23.6864H18.9477Z" fill="#00D2CB"/>
</g>
<path fill-rule="evenodd" clip-rule="evenodd" d="M25.3349 26.6719C25.3349 26.6215 25.3501 26.5721 25.3785 26.5305L28.8189 21.4847C28.842 21.4509 28.8729 21.4232 28.9091 21.4041C28.9453 21.385 28.9856 21.375 29.0265 21.375H30.8903C30.9569 21.375 31.0208 21.4015 31.0679 21.4486C31.115 21.4957 31.1414 21.5596 31.1414 21.6262V26.5945H31.702C31.7686 26.5945 31.8325 26.621 31.8796 26.6681C31.9267 26.7152 31.9531 26.779 31.9531 26.8457V27.9589C31.9531 28.0255 31.9267 28.0894 31.8796 28.1365C31.8325 28.1836 31.7686 28.2101 31.702 28.2101H31.1414V29.0773C31.1414 29.1439 31.115 29.2078 31.0679 29.2549C31.0208 29.302 30.9569 29.3285 30.8903 29.3285H29.2698C29.2032 29.3285 29.1393 29.302 29.0922 29.2549C29.0451 29.2078 29.0186 29.1439 29.0186 29.0773V28.2101H25.5861C25.5195 28.2101 25.4556 28.1836 25.4085 28.1365C25.3614 28.0894 25.3349 28.0255 25.3349 27.9589V26.6719ZM27.208 26.5945L29.0186 23.848V26.5945H27.208Z" fill="#00D2CB"/>
<g style="mix-blend-mode:multiply" opacity="0.5">
<path d="M25.3785 26.5305C25.3501 26.5722 25.3349 26.6215 25.3349 26.6719V27.9589C25.3349 28.0255 25.3614 28.0894 25.4085 28.1365C25.4556 28.1836 25.5195 28.2101 25.5861 28.2101H26.4233C26.3567 28.2101 26.2928 28.1836 26.2457 28.1365C26.1986 28.0894 26.1721 28.0255 26.1721 27.9589V26.6719C26.1721 26.6215 26.1873 26.5721 26.2157 26.5305L29.6562 21.4847C29.6792 21.4509 29.7102 21.4232 29.7463 21.4041C29.7825 21.385 29.8228 21.375 29.8637 21.375H29.0265C28.9856 21.375 28.9453 21.385 28.9091 21.4041C28.8729 21.4232 28.842 21.4509 28.8189 21.4847L25.3785 26.5305ZM30.107 29.3285C30.0404 29.3285 29.9765 29.302 29.9294 29.2549C29.8823 29.2078 29.8558 29.1439 29.8558 29.0773V28.2101H29.0186V29.0773C29.0186 29.1439 29.0451 29.2078 29.0922 29.2549C29.1393 29.302 29.2032 29.3285 29.2698 29.3285H30.107Z" fill="#00D2CB"/>
</g>
<path d="M36.3023 25.1005C36.3023 31.3426 31.2422 36.4028 25 36.4028C21.8734 36.4028 19.0433 35.1332 16.997 33.0814L18.7408 31.3377C18.8945 31.1839 18.7935 30.9207 18.5763 30.9093L11.8834 30.557C11.8482 30.5552 11.813 30.5607 11.7802 30.5733C11.7473 30.5859 11.7174 30.6053 11.6925 30.6302C11.6676 30.6551 11.6482 30.685 11.6356 30.7179C11.623 30.7507 11.6175 30.7859 11.6193 30.8211L11.9716 37.5141C11.983 37.7312 12.2462 37.8322 12.4 37.6785L14.6291 35.4494C17.2813 38.1072 20.9486 39.7517 25 39.7517C33.0916 39.7517 39.6512 33.1921 39.6512 25.1005C39.6512 24.317 39.5896 23.5478 39.4712 22.7975C39.4618 22.7391 39.4318 22.686 39.3867 22.6478C39.3416 22.6095 39.2843 22.5886 39.2252 22.5889H36.3368C36.1757 22.5889 36.0564 22.7385 36.0876 22.8965C36.2308 23.6224 36.3027 24.3606 36.3023 25.1005Z" fill="#2B2979"/>
<g style="mix-blend-mode:multiply" opacity="0.5">
<path d="M36.3023 25.1005C36.3023 31.3426 31.2422 36.4028 25 36.4028C21.8734 36.4028 19.0433 35.1332 16.997 33.0814L18.7408 31.3377C18.8945 31.1839 18.7935 30.9207 18.5763 30.9093L11.8834 30.557C11.8482 30.5552 11.813 30.5607 11.7802 30.5733C11.7473 30.5859 11.7174 30.6053 11.6925 30.6302C11.6676 30.6551 11.6482 30.685 11.6356 30.7179C11.623 30.7507 11.6175 30.7859 11.6193 30.8211L11.9716 37.5141C11.983 37.7312 12.2462 37.8322 12.4 37.6785L14.6291 35.4494C17.2813 38.1072 20.9486 39.7517 25 39.7517C33.0916 39.7517 39.6512 33.1921 39.6512 25.1005C39.6512 24.317 39.5896 23.5478 39.4712 22.7975C39.4618 22.7391 39.4318 22.686 39.3867 22.6478C39.3416 22.6095 39.2843 22.5886 39.2252 22.5889H36.3368C36.1757 22.5889 36.0564 22.7385 36.0876 22.8965C36.2308 23.6224 36.3027 24.3606 36.3023 25.1005Z" fill="#2B2979"/>
</g>
<path d="M13.6977 25.1006C13.6977 25.8548 13.7715 26.5918 13.9124 27.3046C13.9437 27.4626 13.8243 27.6123 13.6632 27.6123H10.7748C10.6526 27.6123 10.5479 27.5243 10.5288 27.4036C10.4086 26.6418 10.3485 25.8718 10.3488 25.1006C10.3488 17.009 16.9084 10.4495 25 10.4495C29.0514 10.4495 32.7187 12.0939 35.3709 14.7517L37.6 12.5226C37.7538 12.3689 38.017 12.4699 38.0284 12.6871L38.3807 19.3801C38.3825 19.4152 38.377 19.4504 38.3644 19.4833C38.3518 19.5161 38.3324 19.546 38.3075 19.5709C38.2826 19.5958 38.2527 19.6152 38.2198 19.6278C38.1869 19.6404 38.1518 19.646 38.1166 19.6441L31.4236 19.2918C31.2065 19.2804 31.1055 19.0172 31.2592 18.8634L33.0029 17.1197C30.9567 15.0679 28.1266 13.7983 25 13.7983C18.7579 13.7983 13.6977 18.8586 13.6977 25.1006Z" fill="#2B2979"/>
</svg>
