<svg width="50" height="51" viewBox="0 0 50 51" fill="none" xmlns="http://www.w3.org/2000/svg">
<rect x="0.5" y="0.600586" width="49" height="49" rx="24.5" fill="white" stroke="#E9EAEF"/>
<g clip-path="url(#clip0_368_3566)">
<path d="M25.225 11.0491C25.1761 11.0929 25.1127 11.1171 25.047 11.1171C24.9812 11.1171 24.9178 11.0929 24.8689 11.0491C24.3315 10.5334 23.6978 10.1286 23.004 9.85784C22.3102 9.58707 21.5699 9.45559 20.8253 9.47093C20.0807 9.48627 19.3464 9.64812 18.6643 9.94723C17.9823 10.2464 17.3658 10.6769 16.8502 11.2142C16.3345 11.7516 15.9297 12.3853 15.6589 13.0791C15.3882 13.7729 15.2567 14.5132 15.272 15.2578C15.2874 16.0024 15.4492 16.7367 15.7483 17.4188C16.0474 18.1008 16.478 18.7173 17.0153 19.233L24.8511 27.0687C24.9012 27.1187 24.969 27.1468 25.0398 27.1468C25.1106 27.1468 25.1785 27.1187 25.2286 27.0687L33.0643 19.233C34.0861 18.1794 34.6595 16.7707 34.6639 15.303C34.6684 13.8354 34.1036 12.4232 33.0884 11.3634C32.0732 10.3036 30.6866 9.67863 29.2201 9.62001C27.7537 9.56139 26.3216 10.0736 25.225 11.0491Z" fill="#00D2CB"/>
<g style="mix-blend-mode:multiply" opacity="0.5">
<path d="M25.0456 11.1184V27.146C24.9748 27.146 24.9069 27.1178 24.8569 27.0677L17.0211 19.232C15.9739 18.1825 15.3792 16.7648 15.3645 15.2823C15.3498 13.7998 15.9162 12.3705 16.9424 11.3006C17.9686 10.2306 19.373 9.605 20.8548 9.55781C22.3366 9.51062 23.778 10.0456 24.8702 11.0481C24.9182 11.0921 24.9805 11.1171 25.0456 11.1184Z" fill="#00D2CB"/>
</g>
<path d="M34.3028 17.3936C34.5883 16.706 34.7351 15.9688 34.7349 15.2244C34.7349 14.123 34.4141 13.0454 33.8119 12.1233C33.2097 11.2011 32.352 10.4743 31.3436 10.0314C30.3351 9.58857 29.2196 9.44891 28.1331 9.62949C27.0466 9.81006 26.0362 10.3031 25.2252 11.0483C25.1764 11.0926 25.113 11.1173 25.0471 11.1177V27.1454C25.1179 27.1453 25.1858 27.1171 25.2359 27.067L33.0716 19.2313C33.599 18.7058 34.0174 18.0813 34.3028 17.3936Z" fill="#00D2CB"/>
<path d="M34.3031 17.3936C34.5886 16.706 34.7354 15.9688 34.7352 15.2244C34.7352 14.123 34.4144 13.0454 33.8122 12.1233C33.21 11.2011 32.3523 10.4743 31.3439 10.0314C30.3354 9.58857 29.2199 9.44891 28.1334 9.62949C27.0469 9.81006 26.0365 10.3031 25.2255 11.0483C25.1767 11.0926 25.1133 11.1173 25.0474 11.1177V27.1454C25.1182 27.1453 25.1861 27.1171 25.2362 27.067L33.0719 19.2313C33.5993 18.7058 34.0177 18.0813 34.3031 17.3936Z" fill="#00D2CB"/>
<path d="M19.2487 40.7314H13.1716C13.0138 40.7314 12.8625 40.6687 12.751 40.5572C12.6394 40.4456 12.5768 40.2943 12.5768 40.1366V36.8411C12.5768 36.6834 12.6394 36.5321 12.751 36.4205C12.8625 36.309 13.0138 36.2463 13.1716 36.2463H20.0563C20.4419 36.2463 20.7259 36.6078 20.6342 36.9827L19.8275 40.2773C19.7616 40.5444 19.523 40.7314 19.2487 40.7314Z" fill="#00D2CB"/>
<path d="M19.2487 40.7314H13.1716C13.0138 40.7314 12.8625 40.6687 12.751 40.5572C12.6394 40.4456 12.5768 40.2944 12.5768 40.1366V36.8411C12.5768 36.6834 12.6394 36.5321 12.751 36.4206C12.8625 36.309 13.0138 36.2463 13.1716 36.2463H20.0563C20.4419 36.2463 20.7259 36.6079 20.6342 36.9827L19.8275 40.2773C19.7616 40.5444 19.523 40.7314 19.2487 40.7314Z" fill="#2B2979"/>
<g style="mix-blend-mode:multiply" opacity="0.5">
<path d="M13.1716 40.7314H14.062C13.9043 40.7314 13.753 40.6687 13.6414 40.5572C13.5299 40.4456 13.4672 40.2944 13.4672 40.1366V36.8411C13.4672 36.763 13.4826 36.6857 13.5125 36.6135C13.5424 36.5414 13.5862 36.4758 13.6414 36.4206C13.6967 36.3653 13.7622 36.3215 13.8344 36.2916C13.9066 36.2617 13.9839 36.2463 14.062 36.2463H13.1716C13.0138 36.2463 12.8625 36.309 12.751 36.4206C12.6394 36.5321 12.5768 36.6834 12.5768 36.8411V40.1366C12.5768 40.2944 12.6394 40.4456 12.751 40.5572C12.8625 40.6687 13.0138 40.7314 13.1716 40.7314Z" fill="#2B2979"/>
</g>
<path d="M13.8276 36.2462V34.2142L9.51262 29.3454C9.126 28.909 8.91251 28.3461 8.91248 27.7631V19.7502C8.91248 18.8856 9.61324 18.1848 10.4778 18.1848C11.3433 18.1848 12.045 18.8874 12.0432 19.7537L12.0272 27.3375L15.2309 30.9375C15.2309 30.9375 13.7875 29.3151 12.0272 27.3375C11.9755 26.5593 12.4528 26.2004 13.0182 26.0446C13.8819 25.8068 14.8062 26.0962 15.417 26.7516L19.716 31.3649V36.2462" fill="#F9C9C0"/>
<g style="mix-blend-mode:multiply" opacity="0.5">
<path d="M10.2595 18.2C9.4982 18.3062 8.91248 18.9597 8.91248 19.7502V27.7631C8.91248 28.3463 9.12618 28.9091 9.51262 29.3454L13.8276 34.2142V36.2462H14.718V33.769L10.403 28.9002C10.0164 28.4638 9.80294 27.9009 9.8029 27.3179V19.305C9.8029 18.8736 9.97733 18.4831 10.2595 18.2Z" fill="#F9C9C0"/>
</g>
<g style="mix-blend-mode:multiply" opacity="0.5">
<path d="M12.0271 27.3377C13.1775 28.6289 14.3313 29.9171 15.4885 31.2022C15.5348 31.2537 15.5915 31.2948 15.6548 31.3228C15.7181 31.3509 15.7866 31.3653 15.8559 31.3651C16.2855 31.3651 16.513 30.8566 16.2257 30.5371C15.5254 29.7577 14.4282 28.5345 13.3628 27.3377C13.3128 26.5838 13.7591 26.2234 14.3011 26.06C13.8889 25.9386 13.4461 25.927 13.0183 26.0448C12.4528 26.2006 11.9755 26.5595 12.0271 27.3377Z" fill="#F9C9C0"/>
</g>
<path d="M30.7513 40.7314H36.8284C36.9862 40.7314 37.1375 40.6687 37.249 40.5572C37.3606 40.4456 37.4232 40.2944 37.4232 40.1366V36.8411C37.4232 36.6834 37.3606 36.5321 37.249 36.4206C37.1375 36.309 36.9862 36.2463 36.8284 36.2463H29.9437C29.5581 36.2463 29.2741 36.6078 29.3658 36.9827L30.1725 40.2773C30.2384 40.5444 30.477 40.7314 30.7513 40.7314Z" fill="#2B2979"/>
<g style="mix-blend-mode:multiply" opacity="0.5">
<path d="M36.828 40.7314H35.9376C36.0954 40.7314 36.2467 40.6687 36.3582 40.5572C36.4698 40.4456 36.5324 40.2944 36.5324 40.1366V36.8411C36.5324 36.6834 36.4698 36.5321 36.3582 36.4206C36.2467 36.309 36.0954 36.2463 35.9376 36.2463H36.828C36.9858 36.2463 37.1371 36.309 37.2486 36.4206C37.3602 36.5321 37.4228 36.6834 37.4228 36.8411V40.1366C37.4228 40.2944 37.3602 40.4456 37.2486 40.5572C37.1371 40.6687 36.9858 40.7314 36.828 40.7314Z" fill="#2B2979"/>
</g>
<path d="M36.1721 36.2462V34.2142L40.4871 29.3454C40.8735 28.9091 41.0872 28.3463 41.0872 27.7631V19.7502C41.0872 18.8856 40.3864 18.1848 39.5218 18.1848C38.6563 18.1848 37.9547 18.8874 37.9565 19.7537L37.9725 27.3375L34.7688 30.9375C34.7688 30.9375 36.2121 29.3151 37.9725 27.3375C38.0241 26.5593 37.5469 26.2004 36.9815 26.0446C36.1178 25.8068 35.1935 26.0962 34.5827 26.7516L30.2837 31.3649V36.2462" fill="#F9C9C0"/>
<g style="mix-blend-mode:multiply" opacity="0.5">
<path d="M39.7405 18.2C40.5017 18.3062 41.0875 18.9597 41.0875 19.7502V27.7631C41.0875 28.3463 40.8738 28.9091 40.4873 29.3454L36.1723 34.2142V36.2462H35.2819V33.769L39.5969 28.9002C39.9834 28.4639 40.1971 27.9011 40.1971 27.3179V19.305C40.1971 18.8736 40.0226 18.4831 39.7405 18.2Z" fill="#F9C9C0"/>
</g>
<g style="mix-blend-mode:multiply" opacity="0.5">
<path d="M37.9727 27.3377C36.8223 28.6289 35.6685 29.9171 34.5114 31.2022C34.4651 31.2537 34.4084 31.2948 34.3451 31.3228C34.2818 31.3509 34.2133 31.3653 34.144 31.3651C33.7144 31.3651 33.4869 30.8566 33.7741 30.5371C34.4745 29.7577 35.5717 28.5345 36.637 27.3377C36.6871 26.5838 36.2408 26.2234 35.6988 26.06C36.111 25.9386 36.5537 25.927 36.9816 26.0448C37.5471 26.2006 38.0243 26.5595 37.9727 27.3377Z" fill="#F9C9C0"/>
</g>
</g>
<defs>
<clipPath id="clip0_368_3566">
<rect width="33" height="33" fill="white" transform="translate(8.5 8.60059)"/>
</clipPath>
</defs>
</svg>
