<svg width="50" height="51" viewBox="0 0 50 51" fill="none" xmlns="http://www.w3.org/2000/svg">
<rect x="0.5" y="0.600586" width="49" height="49" rx="24.5" fill="white" stroke="#E9EAEF"/>
<g clip-path="url(#clip0_368_3588)">
<path d="M28.0739 29.7317L25 43.0379L21.926 29.7307C24.3248 31.074 25.7768 30.7581 28.0739 29.7317Z" fill="#00D2CB"/>
<path d="M32.4403 28.9853C31.4067 28.5455 30.2943 28.3195 29.1706 28.3211H28.4053C28.4008 28.8118 28.2696 29.2887 28.0578 29.7317L25 43.046C27.0382 43.0423 29.0556 42.6364 30.936 41.8517C31.6762 41.5441 32.4561 41.3418 33.2527 41.2506L36.165 40.9139C36.5343 40.8731 36.8754 40.6977 37.1229 40.4212C37.3703 40.1447 37.5067 39.7867 37.5057 39.4161V36.6368C37.5061 35.0065 37.0262 33.412 36.1256 32.0516C35.225 30.6912 33.9435 29.6249 32.4403 28.9853ZM32.4403 35.9665C32.133 35.9667 31.8326 35.8758 31.5771 35.7055C31.3216 35.5352 31.1226 35.293 31.0051 35.0097C30.8874 34.7265 30.8565 34.4148 30.9164 34.1141C30.9763 33.8134 31.1243 33.5372 31.3416 33.3204C31.5589 33.1036 31.8357 32.956 32.1371 32.8962C32.4385 32.8364 32.751 32.8672 33.0348 32.9846C33.2708 33.0822 33.4791 33.2363 33.6412 33.4333C33.8032 33.6304 33.9141 33.8642 33.9639 34.1142C34.0137 34.3642 34.001 34.6226 33.9269 34.8665C33.8528 35.1104 33.7195 35.3323 33.5389 35.5126C33.3946 35.6565 33.2233 35.7707 33.0348 35.8486C32.8464 35.9265 32.6443 35.9665 32.4403 35.9665Z" fill="#ECEDF2"/>
<path d="M33.9814 34.6661C34.1189 33.8211 33.5438 33.025 32.6969 32.8878C31.85 32.7506 31.052 33.3244 30.9145 34.1693C30.777 35.0142 31.3521 35.8104 32.199 35.9476C33.0459 36.0848 33.8439 35.511 33.9814 34.6661ZM25.0001 43.0459H24.97C22.9322 43.0462 20.9145 42.6444 19.033 41.8637L19.0129 41.8557C18.2404 41.5353 17.4268 41.3242 16.5957 41.2285L13.8311 40.9109C13.4631 40.8692 13.1234 40.6937 12.8768 40.418C12.6302 40.1423 12.4941 39.7856 12.4944 39.4161V36.6368C12.4934 35.5445 12.7083 34.4626 13.1268 33.4532C13.5453 32.4438 14.1592 31.5267 14.9334 30.7543C15.7076 29.9819 16.6269 29.3695 17.6386 28.952C18.6504 28.5344 19.7347 28.32 20.8295 28.321H21.5958C21.6006 28.8111 21.7426 29.3013 21.9535 29.7439L25.0001 43.0459Z" fill="#ECEDF2"/>
<path d="M32.4404 35.9666C33.2984 35.9666 33.9939 35.2727 33.9939 34.4166C33.9939 33.5606 33.2984 32.8667 32.4404 32.8667C31.5824 32.8667 30.8868 33.5606 30.8868 34.4166C30.8868 35.2727 31.5824 35.9666 32.4404 35.9666Z" fill="#ECEDF2"/>
<path d="M21.6017 26.3912V28.2948C21.6185 29.1839 21.9843 30.0309 22.6204 30.6537C23.2566 31.2765 24.1123 31.6254 25.0036 31.6254C25.8949 31.6254 26.7506 31.2765 27.3867 30.6537C28.0228 30.0309 28.3886 29.1839 28.4054 28.2948V26.3912C28.4054 26.3912 25.3013 23.0248 21.6017 26.3912Z" fill="#F9C9C0"/>
<path d="M31.1118 18.0474L30.9853 21.6823C30.9479 22.7533 30.6225 23.7944 30.0431 24.6967C29.4636 25.599 28.6516 26.3292 27.6921 26.8107C26.7325 27.2923 25.6608 27.5074 24.5893 27.4336C23.5178 27.3598 22.4859 26.9997 21.6018 26.3912C21.333 26.2057 21.0797 25.9986 20.8446 25.7721C19.7264 24.6975 19.0722 23.2304 19.0209 21.6823L18.8823 17.7028V17.6787C18.8823 17.6787 20.2973 10.2456 26.2222 10.6444C32.1472 11.0432 31.1118 18.0474 31.1118 18.0474Z" fill="#F9C9C0"/>
<path d="M18.8822 17.7061C22.8067 17.5428 25.9399 15.1072 27.4011 11.6847C30.6939 14.0251 30.5142 16.075 31.1167 18.0498C32.5608 16.081 32.2776 12.1636 31.2673 10.6187C30.4258 9.33224 28.8903 8.91545 28.8903 8.91545C26.7021 8.38545 24.4637 9.16993 23.353 9.66687C23.127 9.76818 22.8784 9.80882 22.6318 9.78474C22.3852 9.76066 22.1491 9.67272 21.9471 9.52961L20.3474 8.39446C20.1347 8.23577 19.8789 8.14509 19.6136 8.13437C19.3483 8.12366 19.086 8.19342 18.8612 8.33445C18.712 8.42815 18.5832 8.55081 18.4825 8.69513C17.8088 9.70165 17.3689 10.8456 17.1951 12.0435C16.7 15.3366 18.8932 17.6911 18.8932 17.6911" fill="black"/>
<g style="mix-blend-mode:multiply" opacity="0.5">
<path d="M30.6237 9.88302C30.4157 9.78015 30.1994 9.69502 29.977 9.62854C27.7858 9.09953 25.227 10.1605 24.1173 10.6615C23.6554 10.8679 22.7928 11.0833 22.381 10.7897L20.7823 9.65158C20.6412 9.54631 20.4803 9.47044 20.3092 9.42848C20.1381 9.38651 19.9603 9.37932 19.7864 9.40732C19.6125 9.43538 19.446 9.49809 19.2969 9.59171C19.1478 9.68533 19.0191 9.80795 18.9185 9.95225C18.3772 10.7317 18.1693 11.6344 17.9584 13.0341C17.6571 15.0479 18.3601 16.7101 18.9496 17.6979H18.8783L18.8893 17.6869C18.8893 17.6869 16.6951 15.3314 17.1912 12.0382C17.3667 10.8426 17.808 9.70136 18.4826 8.69787C18.5832 8.55358 18.7119 8.43097 18.8611 8.33736C19.0102 8.24375 19.1767 8.18106 19.3506 8.15301C19.5245 8.12496 19.7024 8.13214 19.8734 8.17411C20.0445 8.21608 20.2054 8.29198 20.3465 8.3973L21.9412 9.52945C22.1432 9.67255 22.3792 9.7605 22.6258 9.78458C22.8725 9.80865 23.1211 9.76802 23.3471 9.66671C24.4568 9.16576 26.6952 8.38528 28.8844 8.91529C29.5254 9.11355 30.1178 9.44317 30.6237 9.88302Z" fill="black"/>
</g>
<g style="mix-blend-mode:multiply" opacity="0.5">
<path d="M21.6729 28.9783C18.845 29.6916 16.1577 31.5542 15.3824 32.8667C14.4304 34.4787 14.6363 41.0031 14.6363 41.0031L13.8329 40.9109C13.4657 40.8683 13.1269 40.6924 12.8812 40.4168C12.6355 40.1411 12.4999 39.785 12.5003 39.4161V36.6368C12.4991 35.5444 12.714 34.4626 13.1325 33.4532C13.551 32.4437 14.165 31.5266 14.9393 30.7543C15.7135 29.9819 16.6328 29.3695 17.6445 28.952C18.6562 28.5344 19.7405 28.32 20.8354 28.321H21.6016C21.6024 28.4468 21.6107 28.572 21.6267 28.6968C21.6267 28.7278 21.6338 28.7579 21.6388 28.7879L21.6478 28.847C21.6549 28.8961 21.6639 28.9352 21.6729 28.9783Z" fill="#ECEDF2"/>
</g>
<g style="mix-blend-mode:multiply" opacity="0.5">
<path d="M28.4054 26.3914C28.4054 26.3914 27.0497 28.5655 23.6112 28.6887C22.9568 28.7165 22.3071 28.8132 21.673 28.9773C21.664 28.9342 21.655 28.8901 21.6479 28.846L21.6389 28.7869C21.6339 28.7568 21.6299 28.7268 21.6269 28.6957C21.6109 28.5711 21.6025 28.4456 21.6017 28.32V26.3914C22.6019 27.08 23.7884 27.4488 25.0036 27.4488C26.2188 27.4488 27.4052 27.08 28.4054 26.3914Z" fill="#F9C9C0"/>
</g>
<path d="M32.4444 32.8666V28.9853M17.5758 34.161V28.9822M17.5758 34.161C18.5157 34.161 19.283 34.7922 19.283 35.5636L19.2759 38.3038M17.5758 34.161C16.6358 34.161 15.8686 34.7932 15.8686 35.5636L15.8756 38.3038M19.2729 38.3038H18.807M16.3376 38.3038H15.8706M32.4444 35.9664C33.3024 35.9664 33.9979 35.2725 33.9979 34.4165C33.9979 33.5605 33.3024 32.8665 32.4444 32.8665C31.5864 32.8665 30.8908 33.5605 30.8908 34.4165C30.8908 35.2725 31.5864 35.9664 32.4444 35.9664Z" stroke="#2B2979" stroke-width="0.75" stroke-linecap="round" stroke-linejoin="round"/>
<path opacity="0.5" d="M32.4443 35.9666C33.3023 35.9666 33.9978 35.2727 33.9978 34.4166C33.9978 33.5606 33.3023 32.8667 32.4443 32.8667C31.5863 32.8667 30.8907 33.5606 30.8907 34.4166C30.8907 35.2727 31.5863 35.9666 32.4443 35.9666Z" stroke="#2B2979" stroke-width="0.75" stroke-linecap="round" stroke-linejoin="round"/>
</g>
<defs>
<clipPath id="clip0_368_3588">
<rect width="25" height="35.2273" fill="white" transform="translate(12.5 7.48706)"/>
</clipPath>
</defs>
</svg>
