<svg width="50" height="51" viewBox="0 0 50 51" fill="none" xmlns="http://www.w3.org/2000/svg">
<rect x="0.5" y="0.808594" width="49" height="49" rx="24.5" fill="white" stroke="#E9EAEF"/>
<g clip-path="url(#clip0_690_99200)">
<path d="M41.4987 25.0894V25.437C41.4534 27.7148 40.9353 29.9584 39.9773 32.0256C39.0196 34.0929 37.6428 35.9388 35.9342 37.4463C35.7535 37.6063 35.5693 37.7623 35.3817 37.9142C33.2195 39.668 30.6468 40.8436 27.9053 41.3305C26.0342 41.661 24.1203 41.6694 22.2464 41.3553C19.4517 40.8849 16.8265 39.6994 14.6259 37.9142C14.4384 37.7632 14.2543 37.6072 14.0734 37.4463C12.3637 35.9393 10.9859 34.0937 10.0271 32.0264C9.06837 29.9591 8.54968 27.7153 8.50391 25.437V24.7417C8.54905 22.4638 9.06697 20.2202 10.0249 18.1529C10.9827 16.0857 12.3597 14.2398 14.0685 12.7324C14.2494 12.572 14.434 12.4157 14.6219 12.2635C16.8222 10.4792 19.4466 9.29406 22.2404 8.82339C24.116 8.50908 26.0316 8.51748 27.9043 8.84823C30.6455 9.33523 33.2178 10.5108 35.3797 12.2645C35.5672 12.4169 35.7518 12.5729 35.9332 12.7324C37.641 14.2404 39.0171 16.0864 39.9742 18.1536C40.9314 20.2208 41.4488 22.4642 41.4938 24.7417C41.4938 24.8579 41.4987 24.9731 41.4987 25.0894Z" fill="#2B2979"/>
<path d="M41.4938 25.4416V24.746H35.8487C35.7971 20.7316 34.8481 16.9457 33.1469 13.9578C34.0686 13.6451 34.9655 13.2634 35.8298 12.816C35.8678 12.795 35.9015 12.767 35.9292 12.7336C35.7484 12.5733 35.5638 12.4172 35.3757 12.2655C34.5405 12.6896 33.6749 13.0513 32.7862 13.3476L32.7197 13.2393C31.3663 11.1139 29.7108 9.61839 27.9004 8.8483C26.0276 8.51746 24.112 8.50905 22.2364 8.82346C21.7796 9.02129 21.3416 9.26008 20.9278 9.53691C19.6589 10.3835 18.4973 11.6326 17.5036 13.2433L17.4042 13.4122C16.4477 13.1043 15.5173 12.7205 14.6219 12.2645C14.4346 12.4175 14.2501 12.5738 14.0685 12.7336C14.0957 12.7674 14.1295 12.7955 14.1678 12.816C15.0944 13.2963 16.058 13.7014 17.0495 14.0273C15.4298 17.0083 14.5236 20.7624 14.4739 24.746H8.50391V25.4416H14.4798C14.5295 29.4242 15.4358 33.1813 17.0554 36.1593C16.064 36.4858 15.1004 36.8912 14.1738 37.3716C14.1354 37.392 14.1016 37.4201 14.0744 37.4541C14.2553 37.6151 14.4394 37.7711 14.6269 37.9221C15.5221 37.4657 16.4525 37.0819 17.4092 36.7744L17.5085 36.9433C18.8361 39.0946 20.4627 40.601 22.2434 41.3642C24.1173 41.6784 26.0312 41.67 27.9023 41.3393C28.352 41.1479 28.7842 40.9179 29.1941 40.6517C30.5018 39.8061 31.7002 38.5571 32.7256 36.9473L32.7912 36.841C33.6807 37.1365 34.5469 37.4979 35.3827 37.9221C35.57 37.7699 35.7542 37.6139 35.9352 37.4541C35.908 37.4201 35.8742 37.392 35.8358 37.3716C34.9697 36.9239 34.0708 36.5426 33.1469 36.2309C34.8471 33.2419 35.7971 29.456 35.8487 25.4416H41.4938ZM24.653 8.95263C24.653 9.88271 24.663 10.7204 24.6679 11.5243C24.6739 12.5388 24.6799 13.5116 24.6848 14.5679C22.4535 14.5492 20.2347 14.2313 18.0879 13.6229C19.788 10.8545 22.0983 9.09572 24.653 8.95263ZM24.653 41.235C22.0973 41.0889 19.7841 39.3321 18.0859 36.5648C20.2343 35.9559 22.4548 35.638 24.6878 35.6198C24.6789 38.2103 24.666 39.9601 24.654 41.235H24.653ZM24.6908 34.9242C22.3332 34.943 19.9895 35.2874 17.7262 35.9477C16.183 33.1575 15.2251 29.4789 15.1734 25.4416H24.7047C24.7057 29.4372 24.7007 32.5165 24.6918 34.9242H24.6908ZM15.1744 24.746C15.2261 20.7078 16.184 17.0292 17.7272 14.239C19.9891 14.8993 22.3315 15.2441 24.6878 15.2634C24.6987 17.5588 24.7057 20.3381 24.7057 24.746H15.1744ZM32.1046 13.5672C29.9197 14.208 27.6572 14.5454 25.3804 14.5699C25.3754 13.5126 25.3695 12.5388 25.3635 11.5233C25.3635 10.7204 25.3536 9.8837 25.3486 8.95462C27.9739 9.09572 30.3498 10.8277 32.1046 13.5672ZM25.3476 41.238C25.3595 39.9631 25.3725 38.2103 25.3824 35.6237C27.6579 35.6463 29.9195 35.9817 32.1036 36.6204C30.3488 39.359 27.9739 41.0919 25.3496 41.235L25.3476 41.238ZM32.4752 36.0143C30.1749 35.3202 27.788 34.9546 25.3854 34.9282C25.3933 32.5205 25.3993 29.4401 25.3993 25.4446H35.1512C35.0985 29.5107 34.0939 33.2141 32.4772 36.0113L32.4752 36.0143ZM25.4013 24.746C25.4013 20.3381 25.3943 17.5578 25.3834 15.2624C27.7877 15.2371 30.1763 14.8718 32.4782 14.1774C34.0939 16.9745 35.0985 20.677 35.1532 24.746H25.4013Z" fill="#ECEDF2"/>
<g style="mix-blend-mode:multiply" opacity="0.5">
<path d="M24.9994 41.5925C20.6756 41.5145 16.5552 39.7421 13.5249 36.6567C10.4947 33.5714 8.79688 29.4196 8.79688 25.0951C8.79688 20.7705 10.4947 16.6188 13.5249 13.5334C16.5552 10.448 20.6756 8.67564 24.9994 8.59766C21.5743 8.59766 18.7979 15.9846 18.7979 25.0976C18.7979 34.2105 21.5743 41.5925 24.9994 41.5925Z" fill="#2B2979"/>
</g>
<path d="M30.3934 29.1729L34.1028 40.3666C34.115 40.4034 34.1378 40.4358 34.1683 40.4599C34.1987 40.4839 34.2355 40.4985 34.2742 40.5019C34.3128 40.5053 34.3516 40.4973 34.3858 40.4789C34.42 40.4605 34.448 40.4325 34.4665 40.3984L36.4449 36.7059L40.5189 35.7272C40.5471 35.7204 40.5735 35.7075 40.5962 35.6894C40.6189 35.6713 40.6374 35.6484 40.6503 35.6224C40.6632 35.5964 40.6702 35.5679 40.6709 35.5388C40.6716 35.5098 40.6659 35.481 40.6543 35.4544C40.6387 35.4188 40.6131 35.3886 40.5805 35.3675L30.6915 28.9434C30.657 28.9204 30.6161 28.9088 30.5746 28.9103C30.5331 28.9117 30.4932 28.9261 30.4603 28.9514C30.4274 28.9767 30.4033 29.0117 30.3913 29.0514C30.3793 29.0911 30.38 29.1336 30.3934 29.1729Z" fill="#00D2CB"/>
<path d="M36.4453 36.7031L39.7175 40.9421" stroke="#00D2CB" stroke-linecap="round" stroke-linejoin="round"/>
<g style="mix-blend-mode:multiply" opacity="0.5">
<path d="M36.4453 36.7057L34.4659 40.3952C34.4475 40.4295 34.4195 40.4576 34.3853 40.4761C34.3511 40.4945 34.3123 40.5026 34.2736 40.4992C34.2349 40.4958 34.198 40.4811 34.1675 40.457C34.1371 40.4329 34.1144 40.4004 34.1022 40.3634L30.3938 29.1727C30.38 29.1337 30.3792 29.0913 30.3913 29.0518C30.4035 29.0122 30.4281 28.9776 30.4614 28.9531L36.4453 36.7057Z" fill="#00D2CB"/>
</g>
</g>
<defs>
<clipPath id="clip0_690_99200">
<rect width="33" height="33" fill="white" transform="translate(8.5 8.59375)"/>
</clipPath>
</defs>
</svg>
