<svg width="61" height="61" viewBox="0 0 61 61" fill="none" xmlns="http://www.w3.org/2000/svg">
<path d="M30.9091 5.39962C30.8201 5.47926 30.7048 5.52329 30.5854 5.52329C30.4659 5.52329 30.3506 5.47926 30.2616 5.39962C29.2845 4.46203 28.1324 3.72607 26.871 3.23374C25.6095 2.74142 24.2635 2.50238 22.9096 2.53026C21.5558 2.55815 20.2207 2.85242 18.9806 3.39627C17.7405 3.94013 16.6197 4.72291 15.6821 5.69993C14.7445 6.67695 14.0085 7.82908 13.5162 9.09052C13.0239 10.352 12.7848 11.698 12.8127 13.0519C12.8406 14.4057 13.1349 15.7408 13.6787 16.9809C14.2226 18.221 15.0054 19.3418 15.9824 20.2794L30.2292 34.5262C30.3203 34.6172 30.4437 34.6682 30.5724 34.6682C30.7011 34.6682 30.8246 34.6172 30.9156 34.5262L45.1624 20.2794C47.0201 18.3638 48.0626 15.8025 48.0708 13.1341C48.0789 10.4657 47.0521 7.89803 45.2061 5.97111C43.3603 4.04412 40.8392 2.9079 38.1729 2.80132C35.5066 2.69474 32.9029 3.62611 30.9091 5.39962Z" fill="#00D2CB"/>
<g style="mix-blend-mode:multiply" opacity="0.5">
<path d="M30.5831 5.5258V34.6669C30.4543 34.6668 30.3309 34.6156 30.2399 34.5245L15.9931 20.2777C14.089 18.3697 13.0078 15.7919 12.9811 13.0965C12.9544 10.4011 13.9842 7.80239 15.85 5.85697C17.7158 3.91156 20.2693 2.77414 22.9635 2.68834C25.6576 2.60253 28.2783 3.57516 30.2641 5.3979C30.3513 5.47797 30.4647 5.52345 30.5831 5.5258Z" fill="#00D2CB"/>
</g>
<path d="M47.4142 16.9351C47.9332 15.685 48.2002 14.3446 48.1999 12.991C48.1998 10.9885 47.6166 9.02933 46.5217 7.35269C45.4267 5.67605 43.8673 4.35447 42.0338 3.54928C40.2003 2.74412 38.172 2.49019 36.1965 2.81851C34.2211 3.14682 32.384 4.04317 30.9095 5.39812C30.8208 5.47871 30.7055 5.52369 30.5857 5.5244V34.6656C30.7145 34.6654 30.8379 34.6142 30.9289 34.5231L45.1757 20.2763C46.1346 19.3208 46.8953 18.1854 47.4142 16.9351Z" fill="#00D2CB"/>
<path d="M47.4148 16.9351C47.9338 15.685 48.2008 14.3446 48.2004 12.991C48.2003 10.9885 47.6172 9.02933 46.5222 7.35269C45.4273 5.67605 43.8678 4.35447 42.0343 3.54928C40.2008 2.74411 38.1725 2.49019 36.1971 2.81851C34.2216 3.14682 32.3845 4.04317 30.91 5.39812C30.8214 5.47871 30.706 5.52369 30.5862 5.5244V34.6656C30.715 34.6654 30.8384 34.6142 30.9294 34.5231L45.1762 20.2763C46.1351 19.3208 46.8958 18.1854 47.4148 16.9351Z" fill="#00D2CB"/>
<path d="M20.0432 59.3674H8.99381C8.70699 59.3674 8.43192 59.2534 8.22911 59.0506C8.02629 58.8478 7.91235 58.5727 7.91235 58.2859V52.2942C7.91235 52.0074 8.02629 51.7323 8.22911 51.5295C8.43192 51.3267 8.70699 51.2127 8.99381 51.2127H21.5116C22.2126 51.2127 22.729 51.87 22.5623 52.5516L21.0955 58.5417C20.9757 59.0274 20.5418 59.3674 20.0432 59.3674Z" fill="#00D2CB"/>
<path d="M20.0432 59.3673H8.99381C8.70699 59.3673 8.43192 59.2534 8.22911 59.0506C8.02629 58.8478 7.91235 58.5727 7.91235 58.2859V52.2941C7.91235 52.0073 8.02629 51.7322 8.22911 51.5294C8.43192 51.3266 8.70699 51.2126 8.99381 51.2126H21.5116C22.2126 51.2126 22.729 51.8699 22.5623 52.5515L21.0955 58.5416C20.9757 59.0273 20.5418 59.3673 20.0432 59.3673Z" fill="#2B2979"/>
<g style="mix-blend-mode:multiply" opacity="0.5">
<path d="M8.99381 59.3673H10.6128C10.3259 59.3673 10.0509 59.2534 9.84806 59.0506C9.64525 58.8477 9.53131 58.5727 9.53131 58.2859V52.2941C9.53131 52.1521 9.55928 52.0115 9.61363 51.8803C9.66798 51.749 9.74764 51.6298 9.84806 51.5294C9.94848 51.429 10.0677 51.3493 10.1989 51.295C10.3301 51.2406 10.4707 51.2126 10.6128 51.2126H8.99381C8.70699 51.2126 8.43192 51.3266 8.22911 51.5294C8.02629 51.7322 7.91235 52.0073 7.91235 52.2941V58.2859C7.91235 58.5727 8.02629 58.8477 8.22911 59.0506C8.43192 59.2534 8.70699 59.3673 8.99381 59.3673Z" fill="#2B2979"/>
</g>
<path d="M10.1866 51.2126V47.5182L2.34117 38.6657C1.63822 37.8723 1.25007 36.8489 1.25 35.7889V21.2199C1.25 19.6479 2.52412 18.3738 4.09612 18.3738C5.66974 18.3738 6.94548 19.6511 6.94224 21.2264L6.9131 35.015L12.7381 41.5604C12.7381 41.5604 10.1138 38.6107 6.9131 35.015C6.8192 33.6 7.68696 32.9476 8.71499 32.6643C10.2854 32.232 11.9658 32.7582 13.0765 33.9497L20.8928 42.3375V51.2126" fill="#F9C9C0"/>
<g style="mix-blend-mode:multiply" opacity="0.5">
<path d="M3.69915 18.4014C2.31495 18.5945 1.25 19.7827 1.25 21.22V35.7889C1.25 36.8493 1.63855 37.8725 2.34117 38.6658L10.1866 47.5182V51.2127H11.8056V46.7088L3.96013 37.8563C3.25717 37.0629 2.86902 36.0395 2.86895 34.9794V20.4105C2.86895 19.6263 3.18611 18.9162 3.69915 18.4014Z" fill="#F9C9C0"/>
</g>
<g style="mix-blend-mode:multiply" opacity="0.5">
<path d="M6.91306 35.0152C9.00472 37.3628 11.1025 39.7049 13.2064 42.0416C13.2907 42.1351 13.3937 42.2099 13.5088 42.2609C13.6239 42.3119 13.7485 42.3381 13.8744 42.3377C14.6555 42.3377 15.0692 41.4131 14.5469 40.8322C13.2736 39.4152 11.2786 37.1912 9.34165 35.0152C9.25067 33.6444 10.0621 32.9892 11.0475 32.6921C10.2981 32.4713 9.49302 32.4503 8.71512 32.6644C7.68708 32.9478 6.81916 33.6002 6.91306 35.0152Z" fill="#F9C9C0"/>
</g>
<path d="M40.957 59.3673H52.0063C52.2931 59.3673 52.5682 59.2534 52.771 59.0506C52.9738 58.8477 53.0878 58.5727 53.0878 58.2859V52.2941C53.0878 52.0073 52.9738 51.7322 52.771 51.5294C52.5682 51.3266 52.2931 51.2126 52.0063 51.2126H39.4886C38.7876 51.2126 38.2711 51.8699 38.4379 52.5515L39.9046 58.5416C40.0244 59.0273 40.4583 59.3673 40.957 59.3673Z" fill="#2B2979"/>
<g style="mix-blend-mode:multiply" opacity="0.5">
<path d="M52.0057 59.3673H50.3867C50.6735 59.3673 50.9486 59.2534 51.1514 59.0506C51.3542 58.8477 51.4682 58.5727 51.4682 58.2859V52.2941C51.4682 52.0073 51.3542 51.7322 51.1514 51.5294C50.9486 51.3266 50.6735 51.2126 50.3867 51.2126H52.0057C52.2925 51.2126 52.5676 51.3266 52.7704 51.5294C52.9732 51.7322 53.0871 52.0073 53.0871 52.2941V58.2859C53.0871 58.5727 52.9732 58.8477 52.7704 59.0506C52.5676 59.2534 52.2925 59.3673 52.0057 59.3673Z" fill="#2B2979"/>
</g>
<path d="M50.8128 51.2126V47.5182L58.6583 38.6657C59.3609 37.8724 59.7494 36.8493 59.7494 35.7889V21.2199C59.7494 19.6479 58.4753 18.3738 56.9033 18.3738C55.3297 18.3738 54.054 19.6511 54.0572 21.2264L54.0863 35.015L48.2614 41.5604C48.2614 41.5604 50.8857 38.6107 54.0863 35.015C54.1802 33.6 53.3125 32.9476 52.2845 32.6643C50.7141 32.232 49.0336 32.7582 47.923 33.9497L40.1067 42.3375V51.2126" fill="#F9C9C0"/>
<g style="mix-blend-mode:multiply" opacity="0.5">
<path d="M57.3009 18.4014C58.6849 18.5945 59.75 19.7827 59.75 21.22V35.7889C59.75 36.8493 59.3615 37.8725 58.6589 38.6658L50.8134 47.5182V51.2127H49.1945V46.7088L57.0399 37.8563C57.7425 37.063 58.1311 36.0399 58.1311 34.9794V20.4105C58.1311 19.6263 57.8139 18.9162 57.3009 18.4014Z" fill="#F9C9C0"/>
</g>
<g style="mix-blend-mode:multiply" opacity="0.5">
<path d="M54.0868 35.0152C51.9952 37.3628 49.8975 39.7049 47.7936 42.0416C47.7093 42.1351 47.6063 42.2099 47.4912 42.2609C47.3761 42.3119 47.2515 42.3381 47.1256 42.3377C46.3445 42.3377 45.9308 41.4131 46.4529 40.8322C47.7264 39.4152 49.7214 37.1912 51.6584 35.0152C51.7493 33.6444 50.9379 32.9892 49.9525 32.6921C50.7019 32.4713 51.5068 32.4503 52.2849 32.6644C53.3129 32.9478 54.1807 33.6002 54.0868 35.0152Z" fill="#F9C9C0"/>
</g>
</svg>
