<svg width="22" height="24" viewBox="0 0 22 24" fill="none" xmlns="http://www.w3.org/2000/svg">
<path d="M2.04088 12.4934C3.11188 14.5934 3.92413 16.4965 4.57662 18.0269C5.95175 21.2515 6.78162 23.1978 8.375 23.1978C10.0651 23.1978 10.25 21.8766 10.25 19.0728C10.25 15.6048 10.5898 15.3228 11 15.3228C11.4102 15.3228 11.75 15.6048 11.75 19.0728C11.75 21.8766 11.9349 23.1978 13.625 23.1978C15.2184 23.1978 16.0483 21.2515 17.4234 18.0269C18.0759 16.4965 18.8881 14.5923 19.9591 12.4934L20.0848 12.2474C20.75 10.9548 21.5 9.48925 21.5 7.82275C21.5 3.8275 18.8645 0.697754 15.5 0.697754C14.2031 0.712542 12.9433 1.13295 11.8974 1.9C11.63 2.07276 11.3184 2.16465 11 2.16465C10.6816 2.16465 10.37 2.07276 10.1026 1.9C9.05672 1.13295 7.79694 0.712542 6.5 0.697754C3.1355 0.697754 0.5 3.8275 0.5 7.82275C0.5 9.48925 1.25188 10.9548 1.91525 12.2478L2.04088 12.4934ZM6.5 1.44775C7.63276 1.46 8.73329 1.82637 9.64738 2.4955C10.7546 3.22598 12.0589 3.59987 13.385 3.56688C14.3216 3.56148 15.2512 3.40431 16.1375 3.1015L15.9001 2.389C14.6641 2.8278 13.3334 2.92915 12.0451 2.68263C12.1534 2.63043 12.2563 2.56762 12.3522 2.49513C13.2665 1.82605 14.3672 1.45982 15.5 1.44775C18.4441 1.44775 20.75 4.24788 20.75 7.82275C20.75 9.30813 20.042 10.6878 19.4176 11.905L19.2909 12.1521C18.2083 14.2746 17.3908 16.192 16.7337 17.7325C15.5229 20.5728 14.723 22.4478 13.625 22.4478C12.8086 22.4478 12.5 22.1568 12.5 19.0728C12.5 15.8995 12.2915 14.5728 11 14.5728C9.7085 14.5728 9.5 15.8995 9.5 19.0728C9.5 22.1568 9.19137 22.4478 8.375 22.4478C7.277 22.4478 6.47712 20.5728 5.26625 17.7325C4.60925 16.192 3.79175 14.2746 2.70913 12.1521L2.58238 11.905C1.958 10.6878 1.25 9.30813 1.25 7.82275C1.25 4.24788 3.55588 1.44775 6.5 1.44775Z" fill="#2B2979" stroke="#2B2979" stroke-width="0.5"/>
</svg>
