<svg width="173" height="46" viewBox="0 0 173 46" fill="none" xmlns="http://www.w3.org/2000/svg">
<path d="M165.643 23.0955C165.643 22.8933 165.563 22.6993 165.419 22.5563C165.276 22.4133 165.082 22.333 164.879 22.333H137.568C137.39 22.3332 137.217 22.3955 137.08 22.509C136.943 22.6226 136.85 22.7804 136.817 22.9552C136.817 22.9735 136.817 22.9897 136.817 23.008C136.817 23.0263 136.817 23.0629 136.817 23.0934V23.126C136.709 25.6004 136.015 28.0142 134.793 30.1696C133.571 32.3249 131.854 34.1606 129.785 35.5263C127.715 36.892 125.351 37.7489 122.886 38.0267C120.421 38.3046 117.925 37.9955 115.602 37.1248C115.464 37.0721 115.314 37.0605 115.169 37.0916C115.025 37.1226 114.892 37.1949 114.788 37.2997L113.338 38.7433C113.249 38.831 113.184 38.939 113.147 39.0579C113.11 39.1767 113.103 39.3028 113.126 39.4251C113.15 39.5473 113.203 39.662 113.281 39.759C113.359 39.856 113.46 39.9324 113.574 39.9815C116.224 41.1152 119.096 41.6367 121.976 41.5071C124.856 41.3776 127.669 40.6003 130.206 39.2333C132.743 37.8662 134.938 35.9448 136.627 33.6124C138.316 31.28 139.456 28.5968 139.961 25.7631H160.387L155.758 30.3724C155.615 30.5154 155.535 30.7092 155.535 30.9112C155.535 31.1133 155.615 31.3071 155.758 31.4501L157.114 32.7981C157.257 32.9409 157.452 33.0211 157.654 33.0211C157.856 33.0211 158.05 32.9409 158.194 32.7981L165.386 25.637C165.473 25.5489 165.537 25.4406 165.572 25.3219C165.619 25.2228 165.643 25.1144 165.643 25.0047V23.0955Z" fill="#2B2979"/>
<path d="M120.372 6.87666C120.566 6.86574 120.749 6.78083 120.883 6.63939C121.017 6.49795 121.091 6.31073 121.091 6.11623V4.20702C121.09 4.10531 121.068 4.00485 121.028 3.9116C120.987 3.81835 120.928 3.73422 120.854 3.66423C120.78 3.59423 120.693 3.53979 120.597 3.50415C120.502 3.4685 120.4 3.45239 120.299 3.45675C117.177 3.58538 114.135 4.47748 111.439 6.05467C108.744 7.63187 106.477 9.84588 104.839 12.5022C103.201 15.1585 102.242 18.1758 102.045 21.2889C101.849 24.4021 102.421 27.5158 103.711 30.3565C103.763 30.468 103.841 30.5654 103.939 30.6403C104.036 30.7153 104.15 30.7656 104.272 30.7869C104.393 30.8083 104.517 30.8001 104.635 30.763C104.752 30.726 104.859 30.6611 104.946 30.5741L106.387 29.1386C106.491 29.0338 106.562 28.9011 106.592 28.7567C106.621 28.6123 106.608 28.4624 106.554 28.3253C105.621 26.0085 105.257 23.5021 105.493 21.016C105.73 18.5299 106.559 16.1365 107.912 14.0363C109.265 11.936 111.102 10.1899 113.27 8.94422C115.438 7.69857 117.873 6.98959 120.372 6.87666Z" fill="#2B2979"/>
<path fill-rule="evenodd" clip-rule="evenodd" d="M120.72 30.0537C122.227 30.0496 123.698 29.6 124.948 28.7615C126.199 27.9231 127.172 26.7334 127.746 25.3428C128.32 23.9522 128.468 22.4231 128.171 20.9485C127.875 19.474 127.148 18.1202 126.081 17.0582C125.015 15.9962 123.657 15.2736 122.179 14.9816C120.701 14.6897 119.17 14.8416 117.779 15.418C116.388 15.9945 115.199 16.9697 114.362 18.2204C113.526 19.4711 113.079 20.9413 113.079 22.4453C113.086 24.4647 113.893 26.3992 115.326 27.8253C116.758 29.2513 118.698 30.0526 120.72 30.0537Z" fill="#2B2979"/>
<path fill-rule="evenodd" clip-rule="evenodd" d="M107.986 22.4452C107.98 24.9609 108.722 27.4218 110.118 29.5163C111.514 31.6108 113.501 33.2448 115.827 34.2115C118.154 35.1781 120.715 35.434 123.187 34.9466C125.659 34.4593 127.931 33.2507 129.714 31.4737C131.498 29.6968 132.714 27.4315 133.208 24.9645C133.701 22.4974 133.451 19.9396 132.488 17.6148C131.525 15.29 129.893 13.3027 127.798 11.9044C125.703 10.5062 123.24 9.75978 120.72 9.75978C117.348 9.75546 114.111 11.0888 111.723 13.4666C109.335 15.8444 107.991 19.0718 107.986 22.4391V22.4452ZM120.72 32.589C118.712 32.5846 116.75 31.9859 115.082 30.8686C113.414 29.7513 112.115 28.1655 111.349 26.3116C110.584 24.4576 110.386 22.4188 110.78 20.4525C111.175 18.4863 112.144 16.6809 113.566 15.2645C114.988 13.8481 116.798 12.8842 118.769 12.4946C120.739 12.105 122.781 12.3072 124.636 13.0756C126.491 13.8441 128.076 15.1442 129.192 16.8119C130.307 18.4795 130.903 20.4398 130.903 22.4452C130.899 25.1383 129.825 27.72 127.915 29.6223C126.006 31.5245 123.418 32.5917 120.72 32.589Z" fill="#00D2CB"/>
<path fill-rule="evenodd" clip-rule="evenodd" d="M120.751 23.4452C120.927 23.4448 121.099 23.3922 121.246 23.2941C121.392 23.196 121.506 23.0568 121.573 22.894C121.641 22.7313 121.658 22.5523 121.623 22.3796C121.589 22.207 121.504 22.0485 121.379 21.9242C121.254 21.7998 121.095 21.7152 120.922 21.681C120.749 21.6468 120.57 21.6646 120.407 21.732C120.244 21.7995 120.105 21.9137 120.007 22.0601C119.909 22.2065 119.857 22.3786 119.857 22.5546C119.857 22.791 119.952 23.0175 120.119 23.1845C120.287 23.3514 120.514 23.4452 120.751 23.4452Z" fill="white"/>
<path d="M18.3071 15.4238H17.8835C17.6441 15.4294 17.4058 15.3901 17.1809 15.308C16.9826 15.2425 16.7977 15.142 16.6351 15.0111C16.4986 14.9009 16.388 14.7621 16.3113 14.6045C16.2447 14.4646 16.2092 14.312 16.2075 14.1571C16.1956 14.0255 16.2198 13.8931 16.2776 13.7742C16.3353 13.6553 16.4244 13.5543 16.5353 13.4821C16.792 13.3374 17.0839 13.2669 17.3784 13.2788C17.4742 13.2788 17.7246 13.3052 17.8998 13.3276C17.9498 13.3315 17.9994 13.3168 18.0392 13.2864C18.0791 13.256 18.1063 13.2121 18.1157 13.1629L18.2175 12.5732C18.2224 12.5428 18.2208 12.5116 18.2131 12.4817C18.2053 12.4518 18.1914 12.4239 18.1723 12.3996C18.1531 12.3754 18.1292 12.3553 18.1019 12.3408C18.0746 12.3262 18.0447 12.3174 18.0138 12.315C17.7633 12.2947 17.4029 12.2642 17.3051 12.2642C16.9868 12.2582 16.6697 12.3042 16.3663 12.4004C16.1263 12.4788 15.9031 12.6016 15.7085 12.7623C15.5399 12.9048 15.4068 13.0843 15.3195 13.2869C15.2366 13.4796 15.1936 13.6871 15.1933 13.8969C15.1919 14.0843 15.2194 14.2708 15.2747 14.4499C15.3241 14.6068 15.3925 14.757 15.4784 14.8972C15.5502 15.0164 15.6364 15.1264 15.735 15.2246C15.8087 15.2988 15.8884 15.3668 15.9733 15.4279H14.8532C14.786 15.4279 14.7216 15.4544 14.6739 15.5016C14.6262 15.5489 14.5992 15.613 14.5986 15.68V16.1721C14.5986 16.2054 14.6052 16.2383 14.618 16.269C14.6309 16.2998 14.6496 16.3276 14.6733 16.3511C14.697 16.3745 14.7251 16.393 14.7559 16.4056C14.7868 16.4181 14.8199 16.4245 14.8532 16.4242H18.0484C18.117 16.4242 18.1828 16.397 18.2313 16.3486C18.2798 16.3001 18.3071 16.2345 18.3071 16.166V15.4238Z" fill="#2B2979"/>
<path d="M31.8477 11.6021C31.9921 11.6023 32.135 11.5726 32.2672 11.5146C32.395 11.4615 32.5117 11.3849 32.6114 11.2889C32.7104 11.1937 32.7893 11.0796 32.8435 10.9534C32.8999 10.8213 32.929 10.6792 32.929 10.5356C32.929 10.392 32.8999 10.2499 32.8435 10.1178C32.7894 9.9898 32.7105 9.87373 32.6114 9.7762C32.5132 9.67788 32.397 9.59921 32.2692 9.54441C32.1366 9.48804 31.9939 9.45898 31.8497 9.45898C31.7056 9.45898 31.5629 9.48804 31.4302 9.54441C31.3033 9.59857 31.1884 9.67736 31.0921 9.7762C30.995 9.87448 30.9176 9.99043 30.8641 10.1178C30.7923 10.28 30.7626 10.4577 30.7776 10.6345C30.7927 10.8112 30.852 10.9813 30.9502 11.1291C31.0483 11.277 31.1822 11.3978 31.3394 11.4804C31.4966 11.5631 31.6721 11.6049 31.8497 11.6021" fill="#2D2571"/>
<path d="M28.9681 11.6021C29.1125 11.6021 29.2553 11.5723 29.3877 11.5146C29.5155 11.4615 29.6322 11.3849 29.7318 11.2889C29.8302 11.1931 29.909 11.0792 29.964 10.9534C30.0204 10.8213 30.0495 10.6792 30.0495 10.5356C30.0495 10.392 30.0204 10.2499 29.964 10.1178C29.8529 9.85977 29.6465 9.65442 29.3877 9.54441C29.255 9.48804 29.1123 9.45898 28.9681 9.45898C28.824 9.45898 28.6813 9.48804 28.5486 9.54441C28.4217 9.59857 28.3068 9.67736 28.2106 9.7762C28.117 9.87535 28.0431 9.99124 27.9927 10.1178C27.9215 10.2801 27.8922 10.4576 27.9075 10.6341C27.9227 10.8107 27.9821 10.9805 28.0802 11.1282C28.1783 11.2759 28.3119 11.3966 28.4688 11.4794C28.6257 11.5622 28.8009 11.6044 28.9783 11.6021" fill="#2D2571"/>
<path d="M44.2968 16.3653C44.1516 16.0465 43.972 15.7445 43.7612 15.4646C43.5462 15.1764 43.2911 14.9203 43.0036 14.7042C42.7034 14.4804 42.3692 14.3061 42.0139 14.1877C41.6207 14.0528 41.2077 13.984 40.792 13.9844C40.563 13.9862 40.3347 14.0087 40.1097 14.0515C39.8413 14.1013 39.5809 14.1875 39.3359 14.3077C39.0443 14.4509 38.7708 14.6284 38.5213 14.8363C38.2129 15.0951 37.9391 15.3923 37.7067 15.7208C37.41 16.1385 37.1542 16.5838 36.943 17.0505C36.6676 17.6498 36.4441 18.2715 36.275 18.9089C36.2306 19.0972 36.149 19.2747 36.035 19.4312C35.921 19.5876 35.7769 19.7197 35.6111 19.8198C35.2719 20.0144 34.8863 20.1134 34.4951 20.1065H33.929C33.4316 20.1144 32.9351 20.0618 32.4505 19.9499C32.0663 19.8594 31.7015 19.701 31.3732 19.4823V14.7204C31.3727 14.5709 31.3128 14.4276 31.2067 14.322C31.1005 14.2165 30.9569 14.1572 30.8071 14.1572H30.1208C30.0465 14.1569 29.9729 14.1713 29.9043 14.1995C29.8356 14.2277 29.7732 14.2691 29.7206 14.3215C29.668 14.3738 29.6262 14.436 29.5977 14.5044C29.5693 14.5729 29.5546 14.6463 29.5546 14.7204V18.976C29.5749 19.2733 29.5099 19.5702 29.3673 19.832C29.3149 19.9197 29.2402 19.9921 29.1508 20.0417C29.0614 20.0913 28.9604 20.1165 28.8581 20.1146H26.7239C26.1507 20.1276 25.5788 20.0543 25.0275 19.897C24.593 19.767 24.193 19.5419 23.8565 19.2383V8.02903C23.856 7.87947 23.7961 7.73622 23.69 7.63066C23.5839 7.5251 23.4402 7.46582 23.2904 7.46582H22.6041C22.5297 7.46556 22.456 7.47991 22.3873 7.50807C22.3185 7.53623 22.2559 7.57764 22.2031 7.62994C22.1504 7.68224 22.1085 7.7444 22.0798 7.81288C22.0511 7.88135 22.0362 7.9548 22.0359 8.02903V18.976C22.0567 19.2731 21.9924 19.57 21.8506 19.832C21.7978 19.9199 21.7228 19.9923 21.633 20.0419C21.5433 20.0915 21.442 20.1166 21.3394 20.1146H14.5294C13.6689 20.1258 12.8085 20.0837 11.9532 19.9885C11.4458 19.9391 10.9509 19.8015 10.491 19.5819C10.1932 19.4398 9.96091 19.1896 9.84138 18.8825C9.73216 18.55 9.6805 18.2014 9.68864 17.8516C9.68865 17.5792 9.71044 17.3072 9.75381 17.0383C9.76494 16.9633 9.7608 16.8869 9.74164 16.8135C9.72248 16.7402 9.68869 16.6715 9.64229 16.6115C9.5959 16.5515 9.53785 16.5015 9.47163 16.4644C9.40541 16.4274 9.33237 16.404 9.2569 16.3958L8.66428 16.3409C8.51994 16.3275 8.37595 16.37 8.26219 16.4597C8.14844 16.5495 8.07364 16.6795 8.05334 16.8228C8.02279 17.0261 7.99631 17.2294 7.98613 17.3108C7.9678 17.4897 7.95151 17.6625 7.94133 17.8292C7.93115 17.996 7.92707 18.1444 7.92707 18.2725C7.92551 18.5958 7.94935 18.9187 7.99835 19.2383C8.04142 19.5397 8.13288 19.8321 8.2692 20.1044C8.41515 20.3843 8.61197 20.6345 8.8496 20.8425C9.13897 21.0923 9.4707 21.2886 9.82916 21.422C10.3082 21.602 10.8063 21.7269 11.3138 21.7941C12.0061 21.8888 12.7044 21.933 13.4032 21.9262H21.7162C21.9368 21.9294 22.1566 21.8985 22.3678 21.8347C22.5517 21.7776 22.7266 21.6948 22.8871 21.5887C23.0407 21.4888 23.178 21.3661 23.2944 21.2248C23.4048 21.0892 23.501 20.9427 23.5816 20.7876C23.7535 20.9518 23.9388 21.1014 24.1355 21.2349C24.3497 21.3795 24.5783 21.5015 24.8177 21.5989C25.0915 21.709 25.3762 21.7901 25.6669 21.8408C26.016 21.9007 26.3697 21.9293 26.7239 21.9262H29.2491C29.6246 21.9406 29.9959 21.8437 30.3163 21.6477C30.5882 21.4742 30.8178 21.2422 30.9883 20.9686C31.3452 21.2604 31.7477 21.4919 32.1796 21.6538C32.7404 21.8509 33.3327 21.9433 33.927 21.9262H34.8271C35.078 21.9284 35.3285 21.9045 35.5745 21.8551C35.7893 21.8111 35.9956 21.7329 36.1854 21.6233C36.3792 21.5088 36.5537 21.3648 36.7027 21.1963C36.8766 20.9937 37.0269 20.772 37.1507 20.5355C37.3296 20.7321 37.5282 20.9099 37.7433 21.0662C37.9981 21.2524 38.271 21.4125 38.5579 21.544C38.8893 21.6925 39.2344 21.8083 39.5884 21.8896C39.9889 21.9827 40.3991 22.0285 40.8103 22.0258C41.2313 22.0311 41.6507 21.9736 42.0546 21.8551C42.4057 21.7504 42.7393 21.5942 43.0443 21.3915C43.3259 21.2044 43.579 20.9777 43.7958 20.7185C43.9978 20.4759 44.1695 20.2096 44.307 19.9255C44.4396 19.653 44.5413 19.3666 44.6104 19.0716C44.6755 18.7991 44.7097 18.5201 44.7122 18.24C44.7098 17.9323 44.6757 17.6257 44.6104 17.325C44.5414 16.9972 44.4362 16.6781 44.2968 16.3734M42.8977 19.3155C42.7832 19.5403 42.6056 19.7268 42.3865 19.8523C42.1386 19.9934 41.8665 20.0871 41.5842 20.1288C41.2389 20.1859 40.8894 20.2131 40.5394 20.2102C40.2558 20.2093 39.9729 20.182 39.6943 20.1288C39.4138 20.0793 39.137 20.0114 38.8654 19.9255C38.6276 19.8531 38.3966 19.7599 38.1751 19.647C38.0245 19.5768 37.8906 19.4756 37.782 19.3501C37.8546 18.8885 37.9761 18.436 38.1445 18C38.3064 17.5866 38.5221 17.1962 38.786 16.8391C39.0184 16.5175 39.3084 16.2418 39.6413 16.0258C39.9573 15.8224 40.3244 15.7124 40.7003 15.7086C41.0833 15.6941 41.4619 15.7939 41.7878 15.9953C42.0771 16.1799 42.3259 16.4213 42.5189 16.7049C42.7077 16.9785 42.8514 17.2805 42.9445 17.5995C43.0282 17.8739 43.0742 18.1585 43.081 18.4453C43.0925 18.7473 43.0317 19.0477 42.9038 19.3216" fill="#2B2979"/>
<path d="M90.1219 14.7103V20.1146H88.6638C88.1852 20.1183 87.7075 20.0727 87.2383 19.9784C86.821 19.8957 86.4248 19.7297 86.0734 19.4904V15.8082C86.0718 15.6604 86.0123 15.5191 85.9076 15.4146C85.8029 15.3101 85.6614 15.2506 85.5133 15.2491H84.827C84.6771 15.2496 84.5334 15.3093 84.4273 15.4152C84.3213 15.5211 84.2614 15.6646 84.2609 15.8143V18.978C84.281 19.2747 84.216 19.5709 84.0735 19.832C84.021 19.92 83.946 19.9925 83.8562 20.0422C83.7664 20.0918 83.665 20.1168 83.5624 20.1146H82.8639C82.3977 20.1162 81.9325 20.0719 81.475 19.9824C81.0457 19.9005 80.6384 19.7294 80.2796 19.4802V16.6723C80.2806 16.5979 80.267 16.5241 80.2394 16.4549C80.2118 16.3858 80.1708 16.3228 80.1188 16.2695C80.0668 16.2163 80.0047 16.1738 79.9362 16.1445C79.8677 16.1152 79.794 16.0998 79.7195 16.099H79.0271C78.952 16.0987 78.8776 16.1134 78.8082 16.1422C78.7389 16.171 78.676 16.2134 78.6233 16.2668C78.5705 16.3202 78.529 16.3836 78.5011 16.4532C78.4733 16.5228 78.4596 16.5973 78.461 16.6723V18.978C78.4811 19.2747 78.4161 19.5709 78.2736 19.832C78.2212 19.9197 78.1465 19.9921 78.0571 20.0417C77.9677 20.0913 77.8668 20.1165 77.7645 20.1146H61.9002C61.331 20.1275 60.7632 20.0542 60.2161 19.897C59.785 19.7669 59.387 19.5457 59.0491 19.2484V8.02903C59.0491 7.9549 59.0345 7.88149 59.006 7.81303C58.9775 7.74457 58.9358 7.68239 58.8832 7.63006C58.8306 7.57774 58.7682 7.53629 58.6995 7.50811C58.6308 7.47993 58.5572 7.46556 58.483 7.46582H57.7967C57.6469 7.46582 57.5032 7.5251 57.3971 7.63066C57.291 7.73622 57.2311 7.87947 57.2306 8.02903V18.978C57.2512 19.2745 57.1869 19.5707 57.0452 19.832C56.9928 19.9197 56.9182 19.9921 56.8288 20.0417C56.7394 20.0913 56.6384 20.1165 56.5361 20.1146H53.8357V11.9572C53.8341 11.8048 53.7722 11.6592 53.6635 11.5522C53.5547 11.4451 53.408 11.3854 53.2553 11.3859H52.5975C52.4461 11.3875 52.3012 11.4481 52.1939 11.5549C52.0866 11.6616 52.0254 11.806 52.0232 11.9572V20.1146H48.1539C47.9919 20.1146 47.8365 20.1789 47.7219 20.2933C47.6073 20.4077 47.543 20.5628 47.543 20.7246V21.3345C47.543 21.4963 47.6073 21.6515 47.7219 21.7659C47.8365 21.8803 47.9919 21.9445 48.1539 21.9445H56.9108C57.3243 21.9615 57.7322 21.8445 58.0737 21.6111C58.3623 21.4042 58.5976 21.1317 58.76 20.8161C58.9307 20.9807 59.1154 21.1304 59.3119 21.2634C59.5253 21.4075 59.7541 21.5275 59.9941 21.6212C60.2683 21.729 60.5529 21.8087 60.8433 21.8591C61.189 21.9188 61.5393 21.9473 61.89 21.9445H78.1474C78.5233 21.9588 78.8953 21.8642 79.2185 21.6721C79.4915 21.5002 79.7225 21.2695 79.8947 20.997C80.0946 21.1706 80.3147 21.3194 80.5504 21.4403C80.7858 21.5615 81.0328 21.6589 81.2876 21.731C81.5423 21.8053 81.8024 21.8596 82.0656 21.8937C82.327 21.9268 82.5902 21.9438 82.8537 21.9445H83.9432C84.3153 21.9581 84.6835 21.8649 85.0042 21.6761C85.2783 21.5082 85.5097 21.2793 85.6803 21.0072C85.8921 21.1932 86.1285 21.3492 86.3829 21.4708C86.6311 21.5892 86.8894 21.6852 87.1548 21.7575C87.409 21.8271 87.6685 21.876 87.9307 21.9039C88.1688 21.9296 88.408 21.9432 88.6475 21.9445H91.3642C91.5194 21.9413 91.667 21.8768 91.7746 21.7651C91.8823 21.6535 91.9412 21.5037 91.9385 21.3488V14.7103C91.9379 14.5607 91.878 14.4174 91.7719 14.3119C91.6658 14.2063 91.5221 14.147 91.3723 14.147H90.686C90.6118 14.1468 90.5382 14.1612 90.4695 14.1893C90.4009 14.2175 90.3384 14.259 90.2858 14.3113C90.2332 14.3636 90.1915 14.4258 90.163 14.4943C90.1345 14.5627 90.1199 14.6361 90.1199 14.7103" fill="#2B2979"/>
<path d="M6.89457 37.9386C8.00924 38.4265 9.21285 38.6791 10.4299 38.6807C12.446 38.6807 13.6231 37.8877 13.6231 36.741C13.6231 35.6776 12.8085 35.0697 10.7456 34.48C8.25495 33.8213 6.71332 32.8534 6.71332 31.2574C6.71332 29.4864 8.68465 28.1709 11.6518 28.1709C13.2158 28.1709 14.3481 28.4393 15.0283 28.726L14.4846 29.9256C13.5617 29.5609 12.5771 29.3772 11.5846 29.3847C9.49924 29.3847 8.70705 30.3119 8.70705 31.0886C8.70705 32.152 9.63569 32.6745 11.7435 33.2825C14.3257 34.0246 15.6393 34.9517 15.6393 36.6231C15.6393 38.3778 13.896 39.8966 10.2935 39.8966C8.82109 39.8966 7.21226 39.5753 6.39563 39.1707L6.89457 37.9386Z" fill="#2B2979"/>
<path d="M24.4063 39.7274L24.2475 38.6965H24.1803C23.5693 39.339 22.3902 39.9165 20.8282 39.9165C18.6064 39.9165 17.4741 38.7514 17.4741 37.5701C17.4741 35.5979 19.8303 34.5203 24.0662 34.5345V34.3617C24.0662 33.6866 23.8178 32.4728 21.5756 32.4728C20.5927 32.4718 19.6207 32.6797 18.7245 33.0828L18.2724 32.1048C19.1766 31.6656 20.4922 31.3789 21.8729 31.3789C25.227 31.3789 26.0416 33.0828 26.0416 34.7195V37.7694C26.0281 38.4268 26.0889 39.0836 26.2229 39.7274H24.4063ZM24.1233 35.5592C21.9483 35.5247 19.478 35.8134 19.478 37.3993C19.478 38.359 20.3395 38.8226 21.3577 38.8226C22.7833 38.8226 23.6915 38.1476 24.0051 37.4542C24.0748 37.3063 24.1136 37.1458 24.1192 36.9825L24.1233 35.5592Z" fill="#2B2979"/>
<path d="M29.2552 27.748H31.251V39.7279H29.2552V27.748Z" fill="#2B2979"/>
<path d="M40.6718 39.7274L40.515 38.6965H40.4458C39.8348 39.339 38.6557 39.9165 37.0937 39.9165C34.8739 39.9165 33.7396 38.7514 33.7396 37.5701C33.7396 35.5979 36.0958 34.5203 40.3338 34.5345V34.3617C40.3338 33.6866 40.0833 32.4728 37.8411 32.4728C36.8582 32.4718 35.8863 32.6797 34.99 33.0828L34.5379 32.1048C35.4442 31.6656 36.7577 31.3789 38.1405 31.3789C41.4925 31.3789 42.3071 33.0828 42.3071 34.7195V37.7694C42.2936 38.4268 42.3544 39.0836 42.4884 39.7274H40.6718ZM40.3786 35.5592C38.2036 35.5247 35.7333 35.8134 35.7333 37.3993C35.7333 38.359 36.5948 38.8226 37.6151 38.8226C39.0406 38.8226 39.9489 38.1476 40.2625 37.4542C40.3331 37.3067 40.3719 37.146 40.3765 36.9825L40.3786 35.5592Z" fill="#2B2979"/>
<path d="M45.5207 33.7696C45.5279 33.0319 45.498 32.2942 45.4311 31.5595H47.1743L47.266 32.877H47.3393C47.9502 32.1003 48.9685 31.3744 50.783 31.3744C52.2778 31.3744 53.4101 32.0495 53.8866 33.0112H53.9314C54.2603 32.5758 54.6764 32.2137 55.1533 31.9478C55.894 31.5406 56.7318 31.3424 57.5767 31.3744C59.0267 31.3744 61.1793 32.084 61.1793 34.9184V39.727H59.2304V35.1034C59.2304 33.5337 58.4606 32.5903 56.8517 32.5903C55.7194 32.5903 54.8356 33.2145 54.4955 33.9384C54.394 34.1735 54.3407 34.4265 54.3387 34.6825V39.727H52.3898V34.833C52.3898 33.5337 51.62 32.5964 50.1008 32.5964C48.8544 32.5964 47.9482 33.3386 47.6325 34.0807C47.5223 34.3065 47.4679 34.5554 47.4737 34.8066V39.7331H45.5248L45.5207 33.7696Z" fill="#2B2979"/>
<path d="M66.7267 29.2158V31.5601H69.5778V32.6906H66.7267V37.0946C66.7267 38.1112 67.1116 38.6805 68.2214 38.6805C68.6088 38.685 68.9956 38.651 69.3761 38.5789L69.4678 39.6931C68.8909 39.8426 68.2959 39.911 67.7001 39.8964C66.7715 39.8964 66.0241 39.6768 65.5475 39.2722C64.9814 38.833 64.7777 38.1072 64.7777 37.1455V32.6906H63.0773V31.5601H64.7777V29.6042L66.7267 29.2158Z" fill="#2B2979"/>
<path d="M77.8867 39.7274L77.7278 38.6965H77.6606C77.0497 39.339 75.8706 39.9165 74.3065 39.9165C72.0868 39.9165 70.9545 38.7514 70.9545 37.5701C70.9545 35.5979 73.3107 34.5203 77.5466 34.5345V34.3617C77.5466 33.6866 77.2981 32.4728 75.0539 32.4728C74.0709 32.4714 73.0989 32.6793 72.2028 33.0828L71.7487 32.1048C72.6549 31.6656 73.9685 31.3789 75.3513 31.3789C78.7033 31.3789 79.5199 33.0828 79.5199 34.7195V37.7694C79.5053 38.4268 79.5661 39.0838 79.7012 39.7274H77.8867ZM77.5914 35.5592C75.4164 35.5247 72.9482 35.8134 72.9482 37.3993C72.9482 38.359 73.8076 38.8226 74.8279 38.8226C76.2534 38.8226 77.1617 38.1476 77.4753 37.4542C77.5443 37.3062 77.5824 37.1457 77.5873 36.9825L77.5914 35.5592Z" fill="#2B2979"/>
<path d="M84.713 35.3076H84.7578C85.0307 35.0209 85.4156 34.6651 85.7332 34.3784L88.9509 31.5604H91.3519L87.114 34.9193L91.9384 39.7279H89.515L85.7312 35.8139L84.713 36.6557V39.7279H82.7416V27.748H84.713V35.3076Z" fill="#2B2979"/>
</svg>
